:SAMPLES-PER-SECOND 30
:FULLY-SPECIFIED
:DEGREES
183
root  35.17248499 36.46658049 -14.86098672 8.860898018 -10.22731209 5.962224007
lowerback  -7.087852955 -1.720096231 -0.611297071
upperback  -3.499255896 -1.767002106 -4.65760994
thorax  0.2227759212 -0.7294845581 -4.601789951
lowerneck  1.966259956 -19.58670044 -12.11320019
upperneck  2.870980263 -26.98269844 14.20740032
head  4.090904713 -13.31268787 4.454397202
lclavicle  0 -4.497500157e-015 -2.743230041e-014
lhumerus  -48.85279846 27.06450081 61.56650162
lradius  5.228657756e-007 -6.507048965e-006 30.05199814
lwrist  4.824992743e-007 -3.790274832e-007 -28.70260048
lhand  -4.444376243e-031 -37.39049911 -10.64420033
lfingers  90 7.125020027 -90
lthumb  95.03917786 -25.46282472 101.5906279
rclavicle  0 -4.497500157e-015 -2.743230041e-014
rhumerus  -1.891378999 -35.10809708 7.923537731
rradius  -5.16745672e-007 2.214343908e-008 38.19850159
rwrist  -0.0001064338358 0.02974390797 -170.8049927
rhand  -1.771090098e-031 4.527910233 -7.418739796
rfingers  -90 -7.125020027 -90
rthumb  -84.9842808 -8.63851772 -59.70133041
rfemur  -14.7325964 16.17211914 9.301531792
rtibia  -2.125128984 -3.595476389 22.56245422
rfoot  0.2565402985 -24.96240425 -31.64485741
rtoes  3.835383386 19.64359766 -101.2782295
lfemur  -8.847813606 -18.70222664 -24.13794327
ltibia  3.288505554 -4.550047398 15.07262707
lfoot  1.823629498 -17.6423893 41.43986511
ltoes  -8.663773519 -18.09572501 -116.1312943
184
root  35.17495103 36.46609389 -14.86380269 8.858516693 -10.24295044 5.964484215
lowerback  -7.088255405 -1.719658256 -0.6084954143
upperback  -3.500279903 -1.767423391 -4.661849976
thorax  0.2222604156 -0.7302696109 -4.607890129
lowerneck  1.965280056 -19.58200073 -12.10379982
upperneck  2.90267992 -26.97870255 14.20499992
head  4.094387531 -13.30998993 4.45409441
lclavicle  0 -4.497500157e-015 -2.743230041e-014
lhumerus  -48.90019989 27.14319992 61.48189926
lradius  5.228657756e-007 -6.507048965e-006 30.03089905
lwrist  4.824992743e-007 -3.790274832e-007 -28.79850006
lhand  -4.445669426e-031 -37.41230011 -10.62590027
lfingers  90 7.125020027 -90
lthumb  95.04530381 -25.44412997 101.6121489
rclavicle  0 -4.497500157e-015 -2.743230041e-014
rhumerus  -2.061280966 -34.95090103 7.998181343
rradius  -5.16745672e-007 2.214343908e-008 38.12490082
rwrist  -0.0001064338358 0.02974390797 -171.0370026
rhand  -1.771604892e-031 4.73348999 -7.536709785
rfingers  -90 -7.125020027 -90
rthumb  -84.99697132 -8.550232453 -59.51006918
rfemur  -14.76417923 16.14038086 9.294634819
rtibia  -2.125841379 -3.587845325 22.60717583
rfoot  0.2492095679 -24.96462631 -31.59827805
rtoes  3.868106619 19.63742429 -101.375586
lfemur  -8.841835976 -18.63916588 -24.14410019
ltibia  3.290250063 -4.525630951 15.05137253
lfoot  1.819099188 -17.68354607 41.4291153
ltoes  -8.660704342 -18.09715588 -116.1214134
185
root  35.1759032 36.46619902 -14.86675983 8.866354942 -10.24528408 5.93639946
lowerback  -7.090592384 -1.718822241 -0.6281409264
upperback  -3.501162767 -1.76747036 -4.676509857
thorax  0.2231570035 -0.7309336662 -4.611830235
lowerneck  1.985080004 -19.57760048 -12.09039974
upperneck  2.91836977 -26.97530174 14.21070004
head  4.094578266 -13.30916595 4.455903053
lclavicle  0 -4.497500157e-015 -2.743230041e-014
lhumerus  -48.9612999 27.25279999 61.36949921
lradius  5.228657756e-007 -6.507048965e-006 29.99530029
lwrist  4.824992743e-007 -3.790274832e-007 -28.98829842
lhand  -4.448129075e-031 -37.45370102 -10.60210037
lfingers  90 7.125020027 -90
lthumb  95.05933568 -25.41926486 101.6540681
rclavicle  0 -4.497500157e-015 -2.743230041e-014
rhumerus  -2.236838102 -34.77880096 8.07973671
rradius  -5.16745672e-007 2.214343908e-008 38.09529877
rwrist  -0.0001064338358 0.02974390797 -171.0659943
rhand  -1.771699018e-031 4.77011013 -7.722139835
rfingers  -90 -7.125020027 -90
rthumb  -85.08363194 -8.392975405 -59.48834758
rfemur  -14.76181126 16.1591301 9.321350098
rtibia  -2.114237547 -3.576864243 22.58558083
rfoot  0.2643120885 -24.95927429 -31.59332657
rtoes  3.849342975 19.64097082 -101.3197578
lfemur  -8.892262459 -18.64369202 -24.09092331
ltibia  3.247397423 -4.527696609 15.12591743
lfoot  1.820373058 -17.70914459 41.42622757
ltoes  -8.657150494 -18.0988119 -116.1099731
186
root  35.17626064 36.46625609 -14.87060006 8.871556282 -10.24342823 5.941300869
lowerback  -7.089101315 -1.717839599 -0.6113766432
upperback  -3.501809359 -1.767264605 -4.679180145
thorax  0.2270060033 -0.7314890623 -4.623990059
lowerneck  2.050189972 -19.56949997 -12.09020042
upperneck  2.853349924 -26.96479797 14.2517004
head  4.069634438 -13.30902004 4.477619171
lclavicle  0 -4.497500157e-015 -2.743230041e-014
lhumerus  -48.96160126 27.16990089 61.42449951
lradius  5.228657756e-007 -6.507048965e-006 30.01250076
lwrist  4.824992743e-007 -3.790274832e-007 -28.88409996
lhand  -4.448813043e-031 -37.46519852 -10.59790039
lfingers  90 7.125020027 -90
lthumb  95.06378439 -25.41475872 101.6659647
rclavicle  0 -4.497500157e-015 -2.743230041e-014
rhumerus  -2.402506113 -34.5674057 8.19772625
rradius  -5.16745672e-007 2.214343908e-008 37.92969894
rwrist  -0.0001064338358 0.02974390797 -171.4779968
rhand  -1.771966062e-031 4.872489929 -7.792300224
rfingers  -90 -7.125020027 -90
rthumb  -85.09620713 -8.339586016 -59.39396935
rfemur  -14.78723907 16.1705761 9.31671524
rtibia  -2.119554758 -3.567582846 22.61742592
rfoot  0.2490930855 -24.94435692 -31.60817146
rtoes  3.829649332 19.64467379 -101.2611729
lfemur  -8.91326046 -18.62942505 -24.08330536
ltibia  3.242133379 -4.512777328 15.1348238
lfoot  1.835428596 -17.74783897 41.45187378
ltoes  -8.670104453 -18.09277149 -116.1516784
187
root  35.17624262 36.46552319 -14.87446432 8.85706234 -10.23665047 5.945417404
lowerback  -7.109779358 -1.716962337 -0.6161889434
upperback  -3.50212574 -1.7669276 -4.674109936
thorax  0.2398259938 -0.7319478989 -4.616539955
lowerneck  2.095190048 -19.56110001 -12.05379963
upperneck  2.806509972 -26.94989777 14.23849964
head  4.040046692 -13.30937576 4.479865551
lclavicle  0 -4.497500157e-015 -2.743230041e-014
lhumerus  -48.99499893 27.21619987 61.38059998
lradius  5.228657756e-007 -6.507048965e-006 30.0017643
lwrist  4.824992743e-007 -3.790274832e-007 -28.9640007
lhand  -4.450575814e-031 -37.49480057 -10.6008997
lfingers  90 7.125020027 -90
lthumb  95.07830736 -25.41653987 101.6979284
rclavicle  0 -4.497500157e-015 -2.743230041e-014
rhumerus  -2.459189177 -35.15589905 7.964609623
rradius  -5.16745672e-007 2.214343908e-008 38.15370178
rwrist  -0.0001064338358 0.02974390797 -170.8419952
rhand  -1.772378997e-031 5.026649952 -7.755889893
rfingers  -90 -7.125020027 -90
rthumb  -85.04191836 -8.381552278 -59.24107898
rfemur  -14.78251743 16.18680763 9.307552338
rtibia  -2.118119955 -3.569895029 22.63175774
rfoot  0.2293875366 -24.96076012 -31.64301872
rtoes  3.824484556 19.64564163 -101.2458104
lfemur  -8.87835598 -18.64960289 -24.10643005
ltibia  3.257632971 -4.518689156 15.10915279
lfoot  1.839745998 -17.72625732 41.47953415
ltoes  -8.686991686 -18.08487999 -116.2060672
188
root  35.17691845 36.46497952 -14.87702197 8.844270706 -10.2560873 5.950893879
lowerback  -7.121490002 -1.715415478 -0.6210266352
upperback  -3.50201726 -1.766581059 -4.663859844
thorax  0.2441159934 -0.7323223948 -4.603630066
lowerneck  2.072299957 -19.56069946 -12.05739975
upperneck  2.862230062 -26.95159721 14.21389961
head  4.057468891 -13.31005955 4.46873188
lclavicle  0 -4.497500157e-015 -2.743230041e-014
lhumerus  -49.03089905 27.21209908 61.36970139
lradius  5.228657756e-007 -6.507048965e-006 30.01470184
lwrist  4.824992743e-007 -3.790274832e-007 -28.99279976
lhand  -4.452806601e-031 -37.53219986 -10.61380005
lfingers  90 7.125020027 -90
lthumb  95.09865684 -25.42774042 101.7390503
rclavicle  0 -4.497500157e-015 -2.743230041e-014
rhumerus  -2.528483391 -35.19009781 7.93112278
rradius  -5.16745672e-007 2.214343908e-008 38.21509933
rwrist  -0.0001064338358 0.02974390797 -170.6940002
rhand  -1.7722015e-031 4.960979939 -7.817949772
rfingers  -90 -7.125020027 -90
rthumb  -85.08914758 -8.323590428 -59.3097431
rfemur  -14.77775669 16.18744278 9.297886848
rtibia  -2.113808393 -3.59290719 22.6333046
rfoot  0.2175589353 -25.01299095 -31.64812279
rtoes  3.837057134 19.64328323 -101.2832085
lfemur  -8.904834747 -18.59544373 -24.10279846
ltibia  3.232905388 -4.522817135 15.15637875
lfoot  1.830168366 -17.75456238 41.42066193
ltoes  -8.67546533 -18.09026841 -116.1689418
